<svg xmlns="http://www.w3.org/2000/svg" version="1.1" xmlns:xlink="http://www.w3.org/1999/xlink" xmlns:svgjs="http://svgjs.dev/svgjs" width="2000" height="637" viewBox="0 0 2000 637"><g transform="matrix(1,0,0,1,1.8508148900824608,70.71459585201319)"><svg viewBox="0 0 254 81" data-background-color="#f8f5f0" preserveAspectRatio="xMidYMid meet" height="637" width="2000" xmlns="http://www.w3.org/2000/svg" xmlns:xlink="http://www.w3.org/1999/xlink"><g id="tight-bounds" transform="matrix(1,0,0,1,-0.23505349104047468,0.05000000000001137)"><svg viewBox="0 0 254.47010698208095 80.89999999999999" height="80.89999999999999" width="254.47010698208095"><g><svg viewBox="0 0 254.47010698208095 80.89999999999999" height="80.89999999999999" width="254.47010698208095"><g><svg viewBox="0 0 254.47010698208095 80.89999999999999" height="80.89999999999999" width="254.47010698208095"><g id="textblocktransform"><svg viewBox="0 0 254.47010698208095 80.89999999999999" height="80.89999999999999" width="254.47010698208095" id="textblock"><g><svg viewBox="0 0 254.47010698208095 80.89999999999999" height="80.89999999999999" width="254.47010698208095"><g><svg><g></g><g></g></svg></g><g><svg><g><svg></svg></g><g></g></svg></g><g id="text-0"><svg viewBox="0 0 254.47010698208095 80.89999999999999" height="80.89999999999999" width="254.47010698208095"><g transform="matrix(1,0,0,1,0,0)"><svg width="150.23129999999998" viewBox="1.2 -37.5 92.84 50" height="80.89999999999999" data-palette-color="#1a1a1a"><path d="M19.45-8.95L21.55-8.95Q20.1-6.95 18.57-5.63 17.05-4.3 15.6-3.3L15.6-3.3Q15.05-2.3 14.2-1.63 13.35-0.95 12.38-0.53 11.4-0.1 10.43 0.1 9.45 0.3 8.65 0.3L8.65 0.3Q6.45 0.3 5.03-0.4 3.6-1.1 2.75-2.18 1.9-3.25 1.55-4.58 1.2-5.9 1.2-7.1L1.2-7.1Q1.2-8.4 1.73-9.38 2.25-10.35 3-10.75L3-10.75Q4.3-14.5 5.55-18.18 6.8-21.85 7.2-25.55L7.2-25.55 12.25-26.55Q13.45-21.8 14.23-18.8 15-15.8 15.48-13.73 15.95-11.65 16.18-10.08 16.4-8.5 16.4-6.6L16.4-6.6Q17.25-7.15 18-7.78 18.75-8.4 19.45-8.95L19.45-8.95ZM11.1-6.95L11.1-6.95Q11.1-8.5 10.93-9.7 10.75-10.9 10.4-12.35 10.05-13.8 9.53-15.88 9-17.95 8.3-21.2L8.3-21.2Q8-18.4 7.08-15.85 6.15-13.3 5.4-10.6L5.4-10.6Q5.85-10.3 6.18-9.78 6.5-9.25 6.5-8.4L6.5-8.4Q6.5-7.45 6-6.95 5.5-6.45 4.9-6.45L4.9-6.45Q4.1-6.45 3.55-7.15L3.55-7.15Q3.95-5.4 4.95-4.42 5.95-3.45 7.6-3.45L7.6-3.45Q9.2-3.45 10.15-4.28 11.1-5.1 11.1-6.95ZM32.85-25L37.85-25 37.85-8Q37.85-7.5 37.9-6.75 37.95-6 38.17-5.28 38.4-4.55 38.85-4.03 39.3-3.5 40.1-3.5L40.1-3.5Q42.55-3.5 43.7-8.95L43.7-8.95 45.55-8.95Q45-5.8 44.15-3.98 43.3-2.15 42.35-1.2 41.4-0.25 40.4 0.03 39.4 0.3 38.6 0.3L38.6 0.3Q37.45 0.3 36.62-0.1 35.8-0.5 35.22-1.15 34.65-1.8 34.3-2.65 33.95-3.5 33.75-4.45L33.75-4.45Q33-2.5 31.32-1.1 29.65 0.3 27.25 0.3L27.25 0.3Q25.75 0.3 24.22-0.3 22.7-0.9 21.47-2.27 20.25-3.65 19.47-5.83 18.7-8 18.7-11.15L18.7-11.15Q18.7-13.45 19.22-15.95 19.75-18.45 20.9-20.5 22.05-22.55 23.85-23.9 25.65-25.25 28.2-25.25L28.2-25.25Q28.8-25.25 29.47-25.13 30.15-25 30.77-24.7 31.4-24.4 31.95-23.88 32.5-23.35 32.85-22.6L32.85-22.6 32.85-25ZM28.5-3.5L28.5-3.5Q29.25-3.5 30.02-3.93 30.8-4.35 31.42-5.08 32.05-5.8 32.45-6.8 32.85-7.8 32.85-8.95L32.85-8.95 32.85-20.35Q32.5-21.15 31.77-21.83 31.05-22.5 29.9-22.5L29.9-22.5Q28.3-22.5 27.15-21.43 26-20.35 25.3-18.73 24.6-17.1 24.27-15.18 23.95-13.25 23.95-11.5L23.95-11.5Q23.95-7.2 25.12-5.35 26.3-3.5 28.5-3.5ZM48.64-27.4L48.64-25 52.7-25 52.7-23.25 48.64-23.25 48.64 4Q48.64 6.65 48.12 8.3 47.59 9.95 46.74 10.9 45.89 11.85 44.77 12.18 43.64 12.5 42.39 12.5L42.39 12.5Q39.7 12.5 38.42 11.25 37.14 10 37.14 7.65L37.14 7.65Q37.14 6.4 37.72 5.35 38.3 4.3 39.22 3.43 40.14 2.55 41.3 1.88 42.45 1.2 43.64 0.7L43.64 0.7 43.64-28.8Q43.64-33.15 45.7-35.33 47.74-37.5 50.95-37.5L50.95-37.5Q52.45-37.5 53.7-37.05 54.95-36.6 55.89-35.65 56.84-34.7 57.37-33.3 57.89-31.9 57.89-30L57.89-30 55.95-30Q55.64-32 54.87-33.15 54.09-34.3 52.3-34.3L52.3-34.3Q51.09-34.3 50.39-33.77 49.7-33.25 49.3-32.35 48.89-31.45 48.77-30.18 48.64-28.9 48.64-27.4L48.64-27.4ZM41.39 9.9L41.39 9.9Q42.84 9.9 43.24 8.35 43.64 6.8 43.64 4.1L43.64 4.1 43.64 2.55Q41.39 3.65 40.24 4.95 39.09 6.25 39.09 7.5L39.09 7.5Q39.09 8.5 39.74 9.2 40.39 9.9 41.39 9.9ZM69.04-25L74.04-25 74.04-8Q74.04-7.5 74.09-6.75 74.14-6 74.37-5.28 74.59-4.55 75.04-4.03 75.49-3.5 76.29-3.5L76.29-3.5Q78.74-3.5 79.89-8.95L79.89-8.95 81.74-8.95Q81.19-5.8 80.34-3.98 79.49-2.15 78.54-1.2 77.59-0.25 76.59 0.03 75.59 0.3 74.79 0.3L74.79 0.3Q73.64 0.3 72.82-0.1 71.99-0.5 71.42-1.15 70.84-1.8 70.49-2.65 70.14-3.5 69.94-4.45L69.94-4.45Q69.19-2.5 67.52-1.1 65.84 0.3 63.44 0.3L63.44 0.3Q61.94 0.3 60.42-0.3 58.89-0.9 57.67-2.27 56.44-3.65 55.67-5.83 54.89-8 54.89-11.15L54.89-11.15Q54.89-13.45 55.42-15.95 55.94-18.45 57.09-20.5 58.24-22.55 60.04-23.9 61.84-25.25 64.39-25.25L64.39-25.25Q64.99-25.25 65.67-25.13 66.34-25 66.97-24.7 67.59-24.4 68.14-23.88 68.69-23.35 69.04-22.6L69.04-22.6 69.04-25ZM64.69-3.5L64.69-3.5Q65.44-3.5 66.22-3.93 66.99-4.35 67.62-5.08 68.24-5.8 68.64-6.8 69.04-7.8 69.04-8.95L69.04-8.95 69.04-20.35Q68.69-21.15 67.97-21.83 67.24-22.5 66.09-22.5L66.09-22.5Q64.49-22.5 63.34-21.43 62.19-20.35 61.49-18.73 60.79-17.1 60.47-15.18 60.14-13.25 60.14-11.5L60.14-11.5Q60.14-7.2 61.32-5.35 62.49-3.5 64.69-3.5ZM79.84-25L84.84-25 84.84-20.8Q85.44-21.7 86.02-22.5 86.59-23.3 87.29-23.9 87.99-24.5 88.84-24.88 89.69-25.25 90.74-25.25L90.74-25.25Q92.44-25.25 93.24-24.38 94.04-23.5 94.04-22.25L94.04-22.25Q94.04-21.5 93.79-21 93.54-20.5 93.19-20.2 92.84-19.9 92.44-19.78 92.04-19.65 91.74-19.65L91.74-19.65Q91.29-19.65 91.02-19.85 90.74-20.05 90.47-20.28 90.19-20.5 89.84-20.7 89.49-20.9 88.94-20.9L88.94-20.9Q87.79-20.9 86.74-20.1 85.69-19.3 84.84-18.4L84.84-18.4 84.84 0 79.84 0 79.84-25Z" opacity="1" transform="matrix(1,0,0,1,0,0)" fill="#1a1a1a" class="wordmark-text-0" data-fill-palette-color="primary"></path></svg></g><g><svg xmlns="http://www.w3.org/2000/svg" data-name="Layer 1" viewBox="0 0 128.00062704264016 121.62785802165448" x="169.33129999999997" y="0" width="85.13880698208096" height="80.89999999999999" class="icon-cg-0" data-fill-palette-color="accent" id="cg-0"><path d="M73.549 85.157A2.001 2.001 0 0 0 72.017 82.779c-1.257-0.271-2.093-0.383-2.128-0.387a2 2 0 0 0-0.522 3.965c0.007 0.001 0.722 0.098 1.804 0.332a2.04 2.04 0 0 0 0.425 0.045A2.001 2.001 0 0 0 73.549 85.157Z" fill="#e98d36" data-fill-palette-color="accent"></path><path d="M83.793 97.519a1.998 1.998 0 0 0-2.704 0.831 19.943 19.943 0 0 1-2.273 3.31 2 2 0 1 0 3.081 2.551 23.924 23.924 0 0 0 2.727-3.988A2.001 2.001 0 0 0 83.793 97.519Z" fill="#e98d36" data-fill-palette-color="accent"></path><path d="M68.92 113.033a2 2 0 0 0 2.799 0.408c1.276-0.952 2.477-1.893 3.568-2.795a2 2 0 0 0-2.551-3.082c-1.039 0.86-2.187 1.759-3.408 2.67A2 2 0 0 0 68.92 113.033Z" fill="#e98d36" data-fill-palette-color="accent"></path><path d="M84.723 89.785a12.489 12.489 0 0 0-3.81-3.598 2 2 0 0 0-2.146 3.375 8.561 8.561 0 0 1 2.612 2.418 2 2 0 1 0 3.344-2.195Z" fill="#e98d36" data-fill-palette-color="accent"></path><path d="M61.502 119.958a1.989 1.989 0 0 0 1.061-0.306q0.873-0.548 1.708-1.083a2 2 0 0 0-2.161-3.367q-0.817 0.526-1.672 1.062A2 2 0 0 0 61.502 119.958Z" fill="#e98d36" data-fill-palette-color="accent"></path><path d="M64 0A64.064 64.064 0 0 0 0.06 61.78a2.105 2.105 0 0 1 0.093-0.231c-0.024 0.377-0.057 0.752-0.074 1.132C0.068 62.633 0.048 62.589 0.04 62.54 0.03 63.03 0 63.51 0 64c0 0.35 0.015 0.697 0.02 1.045C0.017 65.323 0 65.597 0 65.875a2.191 2.191 0 0 0 0.045 0.439A63.471 63.471 0 0 0 11.52 100.55L38.9 92.46a121.31 121.31 0 0 0 11.75-3.97S37.645 85.859 37.501 85.83a5.998 5.998 0 0 1-3.954-8.954A6.031 6.031 0 0 1 38.37 73.96c12.41-0.64 25.08-0.2 28.55 0a0.34 0.34 0 0 1 0.1 0.01 2.015 2.015 0 0 1-0.96-0.47L47.02 56.64 42.49 58.27a1.957 1.957 0 0 1-1.35 0l-4.89-1.75-4.89 1.75a1.958 1.958 0 0 1-1.35 0l-4.89-1.75-4.88 1.75a1.986 1.986 0 0 1-1.36 0l-5.55-2L4.198 63.06c0.079-1.798 0.243-3.573 0.47-5.329L30.33 38.65a1.99 1.99 0 0 1 2.52 0.1L59.14 62.03 84.47 42.98a1.998 1.998 0 0 1 2.33-0.06l31.53 21.51a2.005 2.005 0 0 1 0.53 2.78 2.027 2.027 0 0 1-1.66 0.87 1.926 1.926 0 0 1-1.12-0.35L101.24 57.61l-4 1.63a1.981 1.981 0 0 1-0.76 0.15 1.932 1.932 0 0 1-0.75-0.15l-4.15-1.69-4.14 1.69a2 2 0 0 1-1.52 0l-4.13-1.69-4.14 1.69a1.975 1.975 0 0 1-1.51 0l-4.3-1.76L62.2 64.74l6.51 5.76a2.007 2.007 0 0 1 0.17 2.83 1.972 1.972 0 0 1-1.39 0.66c19.01 1.16 42.46 4.88 55.17 15.55a63.223 63.223 0 0 0 5.278-23.171A2.173 2.173 0 0 0 128 65.875c0-0.324-0.019-0.642-0.024-0.965C127.98 64.606 128 64.305 128 64A64.072 64.072 0 0 0 64 0ZM78.98 19.3a3.409 3.409 0 0 1-1.05 2.71L70.01 27.33l2.03 12.73-6.61-9.85-7.77 4.47a4.059 4.059 0 0 1-1.74 4.12l-5.58-8.32a4.055 4.055 0 0 1 2.27-0.69 3.84 3.84 0 0 1 0.76 0.07 4.175 4.175 0 0 1 1.44 0.57l7.07-5.49L55.27 15.1l11.01 6.69 7.92-5.32a2.06 2.06 0 0 1 1.16-0.31 8.33 8.33 0 0 1 3.51 1.2A10.723 10.723 0 0 1 78.98 19.3Z" fill="#e98d36" data-fill-palette-color="accent"></path><path d="M57.59 89.56c-3.24 2-9.32 4.33-17.56 6.74l-25.95 7.67L1.43 107.71a2.014 2.014 0 0 0-1.098 3.011A2.047 2.047 0 0 0 2.57 111.54l38.59-11.4c3.842-1.127 7.686-2.275 11.405-3.769C56.041 94.975 60.544 93.261 62.95 90.27a5.384 5.384 0 0 0 0.91-1.54 7.27 7.27 0 0 1 1.96 1.69c2.135 2.562-1.475 5.727-3.296 7.207a54.826 54.826 0 0 1-7.027 4.484c-11.01 6.409-23.352 10.88-35.45 14.766q-0.349 0.112-0.697 0.223c-0.94 0.299-2.308 0.483-2.94 1.318A2.001 2.001 0 0 0 18.59 121.54c0.02 0 0.23-0.07 0.62-0.19 0.19-0.06 0.39-0.12 0.6-0.19a246.869 246.869 0 0 0 27.258-10.25A90.087 90.087 0 0 0 62.755 102.269c3.386-2.443 7.838-5.792 7.685-10.493-0.152-4.686-5.278-7.196-9.06-8.626a16.744 16.744 0 0 0-2.84-1.47c3.7 0.07 6.55 0.19 7.91 0.27 0.44 0.03 0.88 0.05 1.32 0.08 0.06 0 0.11 0.01 0.17 0.01 3.4 0.2 6.78 0.44 10.12 0.88 0.06 0.01 0.12 0.01 0.17 0.02a58.518 58.518 0 0 1 11.51 2.59c4.4 1.51 9.25 3.51 12.99 6.61a18.993 18.993 0 0 1 3.12 3.22 10.53 10.53 0 0 1 1.87 3.74c1.38 5.36-2.38 11.75-11.18 18.98a2.009 2.009 0 0 0-0.27 2.82 2.032 2.032 0 0 0 2.81 0.27c10.11-8.31 14.32-16.07 12.52-23.07a13.003 13.003 0 0 0-0.87-2.38 19.707 19.707 0 0 0-6.22-7.1c6.7 2.43 11.8 5.45 15.07 8.98 0.25 0.27 0.49 0.55 0.72 0.83a16.448 16.448 0 0 1 1.25 1.7c3.03 4.72 3.26 10.19 0.72 16.74-0.922 2.352 2.783 3.817 3.73 1.45 2.99-7.72 2.63-14.56-1.09-20.35-6.225-8.026-14.845-12.139-24.48-14.89C89.7 80.02 77.44 78.58 66.68 77.95c-3.4-0.2-15.83-0.62-28.02 0a2.11 2.11 0 0 0-1.945 1.733q-0.011 0.078-0.015 0.158c-0.063 1.131 0.744 1.718 1.67 2.089l14.88 3.01c1.42 0.33 2.7 0.66 3.86 1a1.995 1.995 0 0 1 0.48 3.62Z" fill="#e98d36" data-fill-palette-color="accent"></path><path d="M81.031 53.539a2.001 2.001 0 0 1 1.514 0l4.137 1.69 4.142-1.69a1.996 1.996 0 0 1 1.512 0L96.481 55.23l0.793-0.323L85.732 47.035l-10.171 7.65 1.334 0.544Z" fill="#e98d36" data-fill-palette-color="accent"></path><path d="M17.182 53.409l2.379 0.856 4.885-1.757a2.001 2.001 0 0 1 1.354 0l4.883 1.757 4.887-1.757a1.998 1.998 0 0 1 1.353 0l4.891 1.757 1.794-0.644L31.413 42.824Z" fill="#e98d36" data-fill-palette-color="accent"></path></svg></g></svg></g></svg></g></svg></g></svg></g></svg></g><defs></defs></svg><rect width="254.47010698208095" height="80.89999999999999" fill="none" stroke="none" visibility="hidden"></rect></g></svg></g></svg>